HIERARCHY
ROOT Hips
{
	OFFSET 0.00000 0.00000 0.00000
	CHANNELS 6 Xposition Yposition Zposition Yrotation Zrotation Xrotation 
	JOINT Lumbar
	{
		OFFSET 0 0 0
		CHANNELS 3 Zrotation Xrotation Yrotation
		JOINT Neck
		{
			OFFSET 0.00 0.2701 0.00
			CHANNELS 3 Zrotation Xrotation Yrotation
			End Site
			{
				OFFSET 0.00 0.1379 0.00
			}
		}
		JOINT RightShoulder
		{
			OFFSET 0.0119 0.2289 0.1181
			CHANNELS 3 Zrotation Xrotation Yrotation
			JOINT RightElbow
			{
				OFFSET 0.00 -0.1475 0.00
				CHANNELS 2 Zrotation Yrotation
				JOINT RightWrist
				{
					OFFSET 0.00 -0.1605 0.00
					CHANNELS 2 Zrotation Xrotation
					End Site
					{
						OFFSET 0.0040 -0.1068 0.0006
					}
				}
			}
		}
		JOINT LeftShoulder
		{
			OFFSET 0.0119 0.2289 -0.1181
			CHANNELS 3 Zrotation Xrotation Yrotation
			JOINT LeftElbow
			{
				OFFSET 0.00 -0.1475 0.00
				CHANNELS 2 Zrotation Yrotation
				JOINT LeftWrist
				{
					OFFSET 0.00 -0.1605 0.00
					CHANNELS 2 Zrotation Xrotation
					End Site
					{
						OFFSET 0.0040 -0.1068 -0.0006
					}
				}
			}
		}
	}
	JOINT RightHip
	{
		OFFSET 0.0316 -0.0424 0.0458
		CHANNELS 3 Zrotation Xrotation Yrotation
		JOINT RightKnee
		{
			OFFSET 0.00 -0.2438 0.00
			CHANNELS 1 Zrotation
			JOINT RightAnkle
			{
				OFFSET 0.00 -0.2449 0.00
				CHANNELS 3 Zrotation Xrotation Yrotation
				End Site
				{
					OFFSET 0.1237 -0.0542 0.0051
				}
			}
		}
	}
	JOINT LeftHip
	{
		OFFSET 0.0316 -0.0424 -0.0458
		CHANNELS 3 Zrotation Xrotation Yrotation
		JOINT LeftKnee
		{
			OFFSET 0.00 -0.2438 0.00
			CHANNELS 1 Zrotation
			JOINT LeftAnkle
			{
				OFFSET 0.00 -0.2449 0.00
				CHANNELS 3 Zrotation Xrotation Yrotation
				End Site
				{
					OFFSET 0.1237 -0.0542 -0.0051
				}
			}
		}
	}
}
MOTION
Frames: 25
Frame Time: 0.02
0.90931 0.18503 -0.24474 19.0446 -25.21893 -4.28282 23.40498 4.48902 -14.05802 -12.1847 3.43803 -2.1199 11.49331 -5.62105 29.47222 109.10232 71.41497 -12.69823 0.71761 15.44777 5.60202 -20.39734 89.7629 -90.3827 21.41175 1.58244 20.72431 -3.05984 13.4044 0.5243 -5.44898 -34.07787 -19.16585 19.61715 6.69625 -11.65052 0.53625 -10.46578 35.66321 19.51474
0.90915 0.18498 -0.24484 19.02085 -25.22308 -4.27427 23.45933 4.47931 -14.07804 -12.16011 3.39639 -2.1199 11.20171 -5.77364 29.675 109.24974 71.28811 -12.63915 0.71925 15.36761 5.65318 -20.35227 89.79782 -89.87592 21.04677 1.65175 20.74694 -3.08005 13.11282 0.52388 -4.9237 -33.38001 -18.94692 19.62895 6.67272 -11.61149 0.53626 -10.45182 35.67467 19.51754
0.90899 0.18492 -0.24493 18.98116 -25.22094 -4.26106 23.50428 4.46946 -14.07931 -12.11545 3.36419 -2.1199 10.99526 -5.89954 30.12275 109.40824 71.29989 -12.51315 0.75169 15.29852 5.695 -20.31496 89.80343 -89.0566 20.4837 1.76469 20.76883 -3.10297 12.7443 0.52322 -4.25056 -32.49001 -18.66745 19.63324 6.64504 -11.55293 0.53623 -10.42666 35.67248 19.51695
0.90884 0.18487 -0.24502 18.94834 -25.22184 -4.25015 23.55348 4.45947 -14.08829 -12.08029 3.32893 -2.1199 10.74985 -6.03751 30.46143 109.56365 71.26156 -12.41995 0.76965 15.22566 5.74005 -20.27523 89.82193 -88.40532 20.02704 1.85378 20.79152 -3.12442 12.42317 0.5227 -3.66381 -31.7126 -18.42345 19.64119 6.61956 -11.50201 0.53622 -10.40502 35.67446 19.51733
0.90868 0.18481 -0.24512 18.91705 -25.22232 -4.23829 23.60299 4.45027 -14.10045 -12.04315 3.28844 -2.1199 10.50514 -6.17575 30.78975 109.71199 71.1621 -12.31767 0.79193 15.14693 5.7889 -20.23035 89.84277 -87.65316 19.50908 1.95811 20.81271 -3.14702 12.04737 0.52205 -2.99179 -30.82301 -18.14419 19.6485 6.5926 -11.45296 0.53621 -10.38398 35.67713 19.51792
0.90852 0.18475 -0.2452 18.87891 -25.22196 -4.22742 23.64949 4.43943 -14.10191 -12.00578 3.26092 -2.1199 10.27925 -6.30694 31.19613 109.87642 71.22226 -12.21848 0.81135 15.08321 5.82793 -20.19808 89.85162 -87.03295 19.06867 2.04178 20.83654 -3.16776 11.7675 0.52162 -2.46324 -30.12281 -17.92441 19.65513 6.56786 -11.3967 0.5362 -10.36118 35.67798 19.51806
0.90832 0.18469 -0.24521 18.82435 -25.22192 -4.21997 23.69043 4.42404 -14.07471 -11.96924 3.2692 -2.1199 10.08583 -6.42665 31.78321 110.0929 71.72948 -12.13828 0.81931 15.05889 5.84027 -20.20058 89.83385 -86.86019 18.89187 2.05704 20.86944 -3.18343 11.77784 0.52184 -2.37515 -30.00199 -17.88663 19.66264 6.54957 -11.32491 0.53622 -10.33823 35.67919 19.5183
0.90811 0.18462 -0.2452 18.76367 -25.22103 -4.21378 23.72852 4.40703 -14.03802 -11.93377 3.28982 -2.1199 9.90833 -6.53981 32.43624 110.32329 72.38695 -12.06422 0.82246 15.04926 5.84339 -20.21526 89.80507 -86.82869 18.79877 2.05036 20.90472 -3.19699 11.88664 0.52227 -2.43578 -30.07764 -17.91056 19.66953 6.5338 -11.24707 0.53625 -10.31441 35.67981 19.51841
0.9079 0.18455 -0.2452 18.70671 -25.21974 -4.20737 23.76759 4.39079 -14.00813 -11.90016 3.30333 -2.1199 9.72257 -6.65517 33.04295 110.54044 72.95022 -11.9912 0.82473 15.03253 5.85202 -20.22326 89.78171 -86.72687 18.66545 2.05442 20.93779 -3.211 11.94645 0.5226 -2.42359 -30.05797 -17.90453 19.67604 6.51736 -11.17274 0.53628 -10.29058 35.68053 19.51854
0.9077 0.18448 -0.2452 18.64532 -25.22147 -4.19937 23.80776 4.37437 -13.96724 -11.85613 3.32347 -2.1199 9.54363 -6.77336 33.72678 110.78699 73.62587 -11.90034 0.8404 15.01787 5.85486 -20.23633 89.75563 -86.63974 18.53414 2.05676 20.97547 -3.22722 12.02118 0.52296 -2.42797 -30.05658 -17.90431 19.68498 6.49882 -11.09449 0.53631 -10.26794 35.68136 19.51869
0.90749 0.18441 -0.24519 18.59182 -25.21689 -4.19498 23.845 4.358 -13.94704 -11.83407 3.33266 -2.1199 9.35373 -6.88384 34.26297 110.97574 74.1035 -11.84814 0.82743 15.00235 5.86753 -20.24165 89.73293 -86.56009 18.42161 2.05686 21.00428 -3.23836 12.08958 0.52332 -2.43546 -30.06678 -17.9076 19.68894 6.48526 -11.02321 0.53634 -10.24279 35.68199 19.51881
0.90729 0.18434 -0.24515 18.56235 -25.19421 -4.20074 23.87562 4.34174 -13.98812 -11.87451 3.30826 -2.1199 9.12485 -6.97971 34.36975 110.99898 73.97851 -11.90897 0.72963 14.98012 5.91077 -20.22256 89.72272 -86.46481 18.33699 2.05646 21.00661 -3.23544 12.1139 0.52365 -2.41292 -30.05806 -17.90445 19.67809 6.48527 -10.97298 0.53641 -10.21092 35.68267 19.51894
0.90709 0.18426 -0.24509 18.54099 -25.16542 -4.21002 23.9033 4.32569 -14.05005 -11.9367 3.27249 -2.1199 8.88509 -7.06711 34.32553 110.96393 73.65181 -12.00759 0.60446 14.95662 5.96393 -20.19519 89.71636 -86.37487 18.27038 2.05429 21.00022 -3.22758 12.12931 0.52397 -2.38952 -30.05573 -17.90318 19.66253 6.49014 -10.92994 0.53648 -10.17641 35.68291 19.51898
0.90688 0.18418 -0.24504 18.51552 -25.14001 -4.2174 23.93187 4.30982 -14.1014 -11.98767 3.24202 -2.1199 8.65283 -7.15536 34.35281 110.95722 73.42946 -12.08391 0.49598 14.93408 6.01193 -20.17161 89.70809 -86.28414 18.19829 2.05257 20.99875 -3.22232 12.15089 0.52429 -2.36878 -30.05334 -17.90203 19.64992 6.49252 -10.88361 0.53655 -10.14343 35.6835 19.5191
0.90669 0.1841 -0.245 18.49158 -25.11196 -4.22611 23.96224 4.29269 -14.15728 -12.04439 3.21119 -2.1199 8.40957 -7.25651 34.37023 110.94339 73.15947 -12.18125 0.36873 14.91032 6.06276 -20.14847 89.7001 -86.18788 18.11602 2.05171 20.99326 -3.21545 12.16701 0.52463 -2.34365 -30.04573 -17.89891 19.63379 6.4962 -10.83748 0.53662 -10.10987 35.68453 19.5193
0.90647 0.18402 -0.24495 18.4665 -25.08804 -4.23286 23.98817 4.27829 -14.20855 -12.09417 3.17852 -2.1199 8.18742 -7.32824 34.37167 110.93013 72.9381 -12.24471 0.27498 14.88877 6.10965 -20.12212 89.69257 -86.10682 18.06013 2.04876 20.99412 -3.21084 12.191 0.52493 -2.32543 -30.04792 -17.89952 19.62398 6.49826 -10.79229 0.5367 -10.07582 35.68314 19.51899
0.90622 0.18395 -0.24489 18.43597 -25.07646 -4.23354 24.00278 4.27097 -14.24412 -12.12038 3.14109 -2.1199 8.01742 -7.32643 34.36299 110.93467 72.9059 -12.19659 0.27278 14.87235 6.14794 -20.09033 89.6855 -86.02793 18.05446 2.04185 21.01397 -3.21336 12.23943 0.52511 -2.32676 -30.07543 -17.91006 19.63187 6.49493 -10.75161 0.53682 -10.05015 35.68686 19.51979
0.90596 0.18388 -0.24483 18.40416 -25.06936 -4.23208 24.013 4.26647 -14.27401 -12.13868 3.1026 -2.1199 7.87058 -7.2944 34.34357 110.94133 72.92786 -12.11457 0.30642 14.85841 6.18121 -20.05536 89.67878 -85.96906 18.07683 2.03283 21.0406 -3.21839 12.29543 0.52524 -2.33424 -30.11159 -17.92394 19.64643 6.48974 -10.71081 0.53694 -10.02212 35.68559 19.51946
0.9057 0.1838 -0.24477 18.37313 -25.06061 -4.23147 24.02513 4.26091 -14.30511 -12.15999 3.06613 -2.1199 7.71887 -7.27243 34.33074 110.94564 72.92052 -12.05396 0.32905 14.84407 6.21355 -20.02076 89.67188 -85.92764 18.09907 2.02385 21.0646 -3.22248 12.34724 0.5254 -2.338 -30.14302 -17.936 19.65853 6.48518 -10.66788 0.53706 -9.98961 35.67945 19.51817
0.90544 0.18373 -0.24471 18.34135 -25.05005 -4.23153 24.03753 4.25435 -14.34257 -12.18449 3.02275 -2.1199 7.54301 -7.26523 34.30574 110.9538 72.92575 -11.96982 0.32957 14.82645 6.25923 -19.99003 89.66523 -85.78103 18.07245 2.01829 21.08651 -3.22555 12.4023 0.52553 -2.34585 -30.17844 -17.94961 19.66812 6.48168 -10.63511 0.53721 -9.98162 35.70505 19.52367
0.90517 0.18366 -0.24465 18.31094 -25.04434 -4.22963 24.04832 4.2506 -14.36534 -12.20021 2.9937 -2.1199 7.42295 -7.22078 34.30518 110.9552 72.92061 -11.92552 0.38359 14.81649 6.27653 -19.95108 89.65805 -85.84988 18.14934 2.00562 21.11436 -3.23141 12.45209 0.52572 -2.34647 -30.20715 -17.96056 19.68452 6.47548 -10.58021 0.53729 -9.92056 35.66133 19.51404
0.90489 0.18359 -0.2446 18.28266 -25.05146 -4.22284 24.05607 4.25357 -14.34743 -12.19316 3.00412 -2.1199 7.45239 -7.07612 34.37793 110.93786 72.87165 -12.00484 0.58854 14.82512 6.21045 -19.88586 89.6498 -86.58103 18.54584 1.96957 21.15808 -3.24434 12.48773 0.52609 -2.32561 -30.21611 -17.96385 19.7186 6.46222 -10.47181 0.53721 -9.72705 35.44585 19.46932
0.90459 0.18353 -0.24454 18.2561 -25.06322 -4.21413 24.0623 4.25933 -14.31511 -12.17753 3.02911 -2.1199 7.5369 -6.89606 34.47568 110.91395 72.81197 -12.12427 0.84376 14.84168 6.11704 -19.81323 89.64092 -87.51569 19.03838 1.92717 21.20738 -3.25999 12.51666 0.52651 -2.29646 -30.21671 -17.96365 19.75921 6.44631 -10.34005 0.53707 -9.47834 35.15816 19.40845
0.90431 0.18346 -0.24449 18.23003 -25.07256 -4.20626 24.06902 4.26406 -14.29029 -12.16598 3.04775 -2.1199 7.59568 -6.73525 34.56084 110.89292 72.75915 -12.2216 1.06853 14.85596 6.04028 -19.74698 89.63195 -88.30856 19.45953 1.89059 21.25346 -3.27444 12.54822 0.5269 -2.27212 -30.22187 -17.96541 19.79654 6.4316 -10.21353 0.53693 -9.24525 34.89042 19.35043
0.90401 0.18339 -0.24443 18.19863 -25.08342 -4.19844 24.07642 4.26791 -14.26127 -12.15332 3.06529 -2.1199 7.65873 -6.55963 34.65128 110.87198 72.69874 -12.33396 1.32756 14.86496 5.94578 -19.66826 89.62447 -89.30649 19.99665 1.84188 21.3027 -3.2889 12.58497 0.52733 -2.24683 -30.22857 -17.96805 19.83552 6.41679 -10.10824 0.53688 -9.04945 34.67349 19.31032
